<svg width="133" height="140" viewBox="0 0 133 140" fill="none" xmlns="http://www.w3.org/2000/svg">
<path fill-rule="evenodd" clip-rule="evenodd" d="M106 0H114V13H118C119.105 13 120 13.8954 120 15V19C120 20.1046 119.105 21 118 21H15C13.8954 21 13 20.1046 13 19V15C13 13.8954 13.8954 13 15 13H21.3924C19.3596 11.7751 18 9.54633 18 7C18 3.13401 21.134 0 25 0C28.866 0 32 3.13401 32 7C32 9.54633 30.6404 11.7751 28.6076 13H40V8H49V13H52V8H61V13H64V8H73V13H76V8H85V13H88V8H97V13H106V0ZM14 25C8.47715 25 4 29.4772 4 35V119C4 124.523 8.47715 129 14 129H119C124.523 129 129 124.523 129 119V35C129 29.4772 124.523 25 119 25H14ZM32 33H14V51H32V33ZM101 33H119V51H101V33ZM49.5577 78.3699C57.6218 64.3303 92 74.5 92 74.5C92 74.5 75.5 101 70.5 102.5C67.5281 103.391 57.1277 103.046 51.0369 102.75C50.6275 103.316 50.248 103.889 49.9525 104.426C49.4354 105.364 48.9518 106.596 48.5581 107.733C48.0426 109.222 46.1987 109.841 44.9532 108.876C44.2593 108.338 43.952 107.439 44.2052 106.598C44.4913 105.648 44.9129 104.349 45.4041 103.151C47.2201 100.498 51.5751 94.4151 56.6638 89.2736C63.3858 82.4819 75.8134 77.047 75.8134 77.047C75.8134 77.047 60.2687 80.2509 54.58 85.5633C51.3827 88.5491 47.6987 93.2147 45.085 96.7287C44.6568 92.4174 45.1907 85.9728 49.5577 78.3699ZM105 40C103.895 40 103 40.8954 103 42C103 43.1046 103.895 44 105 44H115C116.105 44 117 43.1046 117 42C117 40.8954 116.105 40 115 40H105ZM16 42C16 40.8954 16.8954 40 18 40H21V37C21 35.8954 21.8954 35 23 35C24.1046 35 25 35.8954 25 37V40H28C29.1046 40 30 40.8954 30 42C30 43.1046 29.1046 44 28 44H25V47C25 48.1046 24.1046 49 23 49C21.8954 49 21 48.1046 21 47V44H18C16.8954 44 16 43.1046 16 42ZM0 135C0 133.895 0.895431 133 2 133H131C132.105 133 133 133.895 133 135V138C133 139.105 132.105 140 131 140H2C0.895431 140 0 139.105 0 138V135Z" fill="#09A82C"/>
</svg>
