<svg width="207" height="229" viewBox="0 0 207 229" fill="none" xmlns="http://www.w3.org/2000/svg">
<rect x="103.054" y="81.8032" width="10" height="36" fill="#FF0000"/>
<rect x="117.054" y="77.8032" width="10" height="40" fill="#FF8A00"/>
<rect x="131.054" y="81.8032" width="10" height="32" fill="#00FF47"/>
<rect x="145.054" y="65.8032" width="10" height="48" fill="#00FFE0"/>
<path fill-rule="evenodd" clip-rule="evenodd" d="M163.271 99.0317C150.402 117.208 125.234 121.51 107.058 108.641C88.8816 95.771 84.5796 70.6034 97.4491 52.4271C110.319 34.2508 135.486 29.9487 153.663 42.8183C171.839 55.6878 176.141 80.8554 163.271 99.0317ZM104.362 123.436C128.224 136.478 158.601 129.855 174.697 107.122C192.035 82.635 186.239 48.7298 161.753 31.3923C137.266 14.0548 103.361 19.8504 86.0232 44.3371C70.0673 66.8724 73.7045 97.3849 93.4722 115.619L78.7504 136.411C73.9555 135.899 69.0324 137.927 66.0479 142.143L40.771 177.842C36.3803 184.044 37.848 192.63 44.0492 197.021C50.2504 201.411 58.8368 199.944 63.2274 193.743L88.5044 158.043C91.4889 153.827 91.7666 148.51 89.6907 144.158L104.362 123.436Z" fill="#1D273B"/>
<path fill-rule="evenodd" clip-rule="evenodd" d="M165.054 75.8032C165.054 95.2028 149.539 110.803 130.554 110.803C111.569 110.803 96.0541 95.2028 96.0541 75.8032C96.0541 56.4036 111.569 40.8032 130.554 40.8032C140.482 40.8032 149.461 45.0696 155.769 51.9147L139.297 71.0244C139.044 71.3177 138.644 71.4387 138.271 71.3348L119.897 66.2209C119.624 66.1449 119.332 66.1884 119.092 66.3405L100.517 78.1576C100.229 78.3412 100.054 78.6594 100.054 79.0014V88.9818C100.054 89.7709 100.925 90.2491 101.591 89.8256L119.074 78.7033C119.324 78.5442 119.631 78.5042 119.914 78.594L138.251 84.427C138.634 84.5487 139.052 84.4298 139.313 84.1251L160.841 59.0244C163.526 63.9998 165.054 69.7144 165.054 75.8032ZM171.054 75.8032C171.054 98.4469 152.922 116.803 130.554 116.803C108.187 116.803 90.0541 98.4469 90.0541 75.8032C90.0541 53.1595 108.187 34.8032 130.554 34.8032C152.922 34.8032 171.054 53.1595 171.054 75.8032Z" fill="white"/>
<path d="M102.054 74.9124C102.054 74.5383 102.263 74.1954 102.595 74.0238L117.23 66.4703C117.439 66.3624 117.68 66.3316 117.909 66.3834L132.536 69.6861C132.86 69.7593 133.199 69.6667 133.441 69.4389L148.763 55.0188C149.33 54.485 150.262 54.7759 150.426 55.5375L151.436 60.2535C151.509 60.5949 151.399 60.9496 151.146 61.1895L133.456 77.9232C133.206 78.1597 132.852 78.251 132.519 78.1651L117.924 74.3986C117.686 74.3372 117.433 74.3655 117.215 74.4782L103.513 81.5504C102.847 81.8939 102.054 81.4107 102.054 80.6618V74.9124Z" fill="#1799F7"/>
<path d="M154.692 52.1835C155.448 52.0392 156.077 52.7676 155.824 53.4946L152.407 63.309C152.154 64.036 151.208 64.2164 150.705 63.6337L143.914 55.7673C143.411 55.1846 143.727 54.2758 144.484 54.1315L154.692 52.1835Z" fill="#1799F7"/>
</svg>
